<?xml version="1.0" encoding="iso-8859-1"?>
<!-- Generator: Adobe Illustrator 21.0.0, SVG Export Plug-In . SVG Version: 6.00 Build 0)  -->
<svg xmlns="http://www.w3.org/2000/svg" xmlns:xlink="http://www.w3.org/1999/xlink" version="1.1" id="Capa_1" x="0px" y="0px" viewBox="0 0 512 512" style="enable-background:new 0 0 512 512;" xml:space="preserve" width="512" height="512">
<g>
	<g>
		<g>
			<g>
				<g>
					<g>
						<g>
							<g>
								<g>
									<g>
										<g>
											<g>
												<circle style="fill:#8DD62D;" cx="256" cy="256" r="256"/>
											</g>
										</g>
									</g>
								</g>
							</g>
						</g>
					</g>
				</g>
			</g>
		</g>
	</g>
	<path style="fill:#7EBA17;" d="M77.184,320.762l190.945,190.945C403.881,505.373,512,393.318,512,256   c0-6.702-0.26-13.343-0.766-19.916L397,121.85L77.184,320.762z"/>
	<g>
		<path style="fill:#FFFFFF;" d="M403.663,285.5c6.884,0,13.452,1.343,19.472,3.759c2.945-12.594,4.522-25.714,4.522-39.207    c0-94.804-76.853-171.657-171.657-171.657c-94.804,0-171.657,76.854-171.657,171.657c0,14.512,1.819,28.595,5.212,42.053    c7.533-4.202,16.207-6.605,25.446-6.605c28.899,0,52.326,23.427,52.326,52.327h184.01    C351.337,308.927,374.764,285.5,403.663,285.5z"/>
		<path style="fill:#E9EDF5;" d="M256,78.395c-0.032,0-0.063,0.001-0.095,0.001v259.43h95.432c0-28.899,23.427-52.327,52.326-52.327    c6.884,0,13.452,1.343,19.472,3.759c2.945-12.594,4.522-25.714,4.522-39.207C427.657,155.249,350.804,78.395,256,78.395z"/>
		<path style="fill:#555A66;" d="M370.337,356.826H148.326v-19c0-18.376-14.95-33.327-33.326-33.327    c-5.748,0-11.195,1.413-16.189,4.198l-21.626,12.064l-6.053-24.012c-3.841-15.236-5.788-30.948-5.788-46.697    c0-105.129,85.528-190.657,190.657-190.657s190.657,85.528,190.657,190.657c0,14.641-1.689,29.288-5.021,43.533l-5.04,21.55    l-20.538-8.244c-3.954-1.587-8.125-2.392-12.396-2.392c-18.376,0-33.326,14.95-33.326,33.327V356.826z M183.757,318.826h151.149    c8.338-30.135,36.005-52.327,68.757-52.327c1.37,0,2.735,0.039,4.096,0.116c0.598-5.499,0.898-11.032,0.898-16.563    c0-84.175-68.481-152.657-152.657-152.657c-84.175,0-152.657,68.482-152.657,152.657c0,5.77,0.326,11.533,0.974,17.254    c3.527-0.535,7.1-0.807,10.684-0.807C147.752,266.5,175.419,288.691,183.757,318.826z"/>
		<path style="fill:#333940;" d="M256,59.395c-0.032,0-0.063,0.001-0.095,0.001v38c0.032,0,0.063-0.001,0.095-0.001    c84.176,0,152.657,68.482,152.657,152.657c0,5.532-0.301,11.064-0.898,16.563c-1.36-0.078-2.726-0.116-4.096-0.116    c-32.752,0-60.419,22.191-68.757,52.327h-79.001v38h114.432v-19c0-18.376,14.95-33.327,33.326-33.327    c4.271,0,8.441,0.805,12.396,2.392l20.538,8.244l5.04-21.55c3.331-14.246,5.021-28.892,5.021-43.533    C446.657,144.923,361.129,59.395,256,59.395z"/>
	</g>
	<g>
		<path style="fill:#DCE1EB;" d="M171,250c0-16.332,4.615-31.582,12.6-44.534l-35.058-46.744C127.627,183.319,115,215.183,115,250    H171z"/>
	</g>
	<g>
		<path style="fill:#BEC3D2;" d="M148.541,158.722l35.058,46.744C198.565,181.189,225.388,165,256,165h0v-56    C212.945,109,174.404,128.304,148.541,158.722z"/>
	</g>
	<g>
		<path style="fill:#9196AA;" d="M256,109v56c30.523,0,57.275,16.097,72.266,40.256l38.454-42.564    C340.898,129.991,300.901,109,256,109z"/>
	</g>
	<g>
		<path style="fill:#707789;" d="M397,250c0-32.971-11.319-63.296-30.28-87.308l-38.454,42.564C336.331,218.253,341,233.578,341,250    L397,250z"/>
	</g>
	<g>
		<path style="fill:#FFC200;" d="M220.355,325.216L220.355,325.216c-2.446-10.044,0.15-20.65,6.96-28.427l119.915-136.961    l-66.473,169.467c-3.775,9.623-11.998,16.807-22.042,19.253h0C241.678,352.698,224.504,342.251,220.355,325.216z"/>
	</g>
	<g>
		<path style="fill:#FF9500;" d="M255.905,264.134v84.959c0.936-0.141,1.873-0.317,2.809-0.546    c10.044-2.446,18.267-9.629,22.042-19.253l66.473-169.467L255.905,264.134z"/>
	</g>
</g>















</svg>
