<?xml version="1.0" encoding="iso-8859-1"?>
<!-- Generator: Adobe Illustrator 19.0.0, SVG Export Plug-In . SVG Version: 6.00 Build 0)  -->
<svg version="1.1" id="Layer_1" xmlns="http://www.w3.org/2000/svg" xmlns:xlink="http://www.w3.org/1999/xlink" x="0px" y="0px"
	 viewBox="0 0 473.935 473.935" style="enable-background:new 0 0 473.935 473.935;" xml:space="preserve">
<circle style="fill:#E84849;" cx="236.967" cy="236.967" r="236.967"/>
<path style="fill:#B8D4D8;" d="M345.06,160.99L163.071,146.3c-7.873,0-16.707,6.021-14.252,13.426l29.388,103.075
	c3.334,9.287,11.02,9.392,18.892,9.392h137.282c7.873,0,14.245-6.013,14.245-13.418l10.679-82.518
	C359.305,168.844,354.935,161.829,345.06,160.99z M328.828,248.425c0,5.86-5.036,10.619-11.27,10.619H208.953
	c-6.226,0-12.307-0.079-14.945-7.431l-23.248-81.537c-1.938-5.86,5.051-10.619,11.278-10.619l143.973,11.618
	c7.813,0.666,11.27,6.204,11.27,12.067L328.828,248.425z"/>
<g>
	<g>
		<circle style="fill:#4B4A4B;" cx="297.023" cy="333.169" r="23.285"/>
		<path style="fill:#4B4A4B;" d="M181.963,309.887c-12.868,0-23.285,10.421-23.285,23.285c0,12.857,10.413,23.285,23.285,23.285
			c12.864,0,23.285-10.428,23.285-23.285C205.248,320.308,194.827,309.887,181.963,309.887z"/>
	</g>
	<g>
		<path style="fill:#6DABB5;" d="M132.362,145.81c0,5.224-4.494,9.455-10.035,9.455H86.559c-5.545,0-10.035-4.232-10.035-9.455l0,0
			c0-5.22,4.486-9.441,10.035-9.441h35.768C127.868,136.369,132.362,140.594,132.362,145.81L132.362,145.81z"/>
		<path style="fill:#6DABB5;" d="M340.005,293.727c0,5.22-4.494,9.448-10.035,9.448H165.076c-5.538,0-10.028-4.232-10.028-9.448l0,0
			c0-5.22,4.486-9.448,10.028-9.448H329.97C335.507,284.279,340.005,288.511,340.005,293.727L340.005,293.727z"/>
		<path style="fill:#6DABB5;" d="M173.802,287.5L131.21,143.741c-1.471-5.036-6.986-7.989-12.337-6.608
			c-5.343,1.388-8.486,6.586-7.008,11.618l42.593,143.759c1.471,5.036,6.993,7.996,12.329,6.608
			C172.133,297.734,175.277,292.537,173.802,287.5z"/>
	</g>
</g>
<g>
	<path style="fill:#B8D4D8;" d="M352.375,197.971c-0.153,2.806-5.665,4.816-12.307,4.479l-166.296-8.236
		c-6.642-0.337-11.899-2.874-11.745-5.688l0,0c0.161-2.806,5.673-4.816,12.314-4.486l166.296,8.251
		C347.283,192.62,352.529,195.164,352.375,197.971L352.375,197.971z"/>
	<path style="fill:#B8D4D8;" d="M345.128,229.196c-0.079,2.806-4.876,4.969-10.728,4.816l-146.353-3.648
		c-5.852-0.153-10.529-2.544-10.451-5.358l0,0c0.075-2.806,4.883-4.962,10.728-4.823l146.36,3.656
		C340.536,223.987,345.206,226.382,345.128,229.196L345.128,229.196z"/>
</g>
<g>
	<path style="fill:#5C5C5C;" d="M162.67,338.965c-4.333-4.326,0.423-16.333,4.756-20.666s14.829-8.449,19.162-4.116
		C190.925,318.523,167.003,343.305,162.67,338.965z"/>
	<path style="fill:#5C5C5C;" d="M276.889,338.965c-4.333-4.326,0.423-16.333,4.756-20.666c4.34-4.333,14.829-8.449,19.169-4.116
		C305.143,318.523,281.225,343.305,276.889,338.965z"/>
</g>
<g>
</g>
<g>
</g>
<g>
</g>
<g>
</g>
<g>
</g>
<g>
</g>
<g>
</g>
<g>
</g>
<g>
</g>
<g>
</g>
<g>
</g>
<g>
</g>
<g>
</g>
<g>
</g>
<g>
</g>
</svg>
