<?xml version="1.0" encoding="iso-8859-1"?>
<!-- Generator: Adobe Illustrator 19.0.0, SVG Export Plug-In . SVG Version: 6.00 Build 0)  -->
<svg version="1.1" id="Capa_1" xmlns="http://www.w3.org/2000/svg" xmlns:xlink="http://www.w3.org/1999/xlink" x="0px" y="0px"
	 viewBox="0 0 512 512" style="enable-background:new 0 0 512 512;" xml:space="preserve">
<circle style="fill:#EDD9A6;" cx="256" cy="256" r="256"/>
<path style="fill:#C3B48B;" d="M512,256c0-3.123-0.076-6.228-0.187-9.324l-112.19-112.19L82.057,388.088l117.699,117.699
	C217.856,509.845,236.675,512,256,512C397.385,512,512,397.385,512,256z"/>
<rect x="82.06" y="208.7" style="fill:#605246;" width="347.88" height="179.39"/>
<rect x="255.57" y="208.7" style="fill:#473B32;" width="174.37" height="179.39"/>
<path style="fill:#866857;" d="M429.943,220.433H82.057v-12.574c0-57.408,46.538-103.946,103.946-103.946h139.992
	c57.408,0,103.946,46.538,103.946,103.946v12.574H429.943z"/>
<path style="fill:#605246;" d="M429.943,207.858c0-57.408-46.538-103.946-103.947-103.946h-70.425v116.521h174.371L429.943,207.858
	L429.943,207.858z"/>
<rect x="369.75" y="208.5" style="fill:#F59F1E;" width="24.5" height="179.59"/>
<g>
	<rect x="117.75" y="208.5" style="fill:#F0C419;" width="24.5" height="179.59"/>
	<rect x="79" y="206.5" style="fill:#F0C419;" width="354" height="19.5"/>
</g>
<g>
	<rect x="255.57" y="206.5" style="fill:#F59F1E;" width="177.43" height="19.5"/>
	<rect x="224.56" y="198.64" style="fill:#F59F1E;" width="62.871" height="71.25"/>
</g>
<rect x="255.57" y="198.64" style="fill:#E57F25;" width="31.864" height="71.25"/>
<g>
</g>
<g>
</g>
<g>
</g>
<g>
</g>
<g>
</g>
<g>
</g>
<g>
</g>
<g>
</g>
<g>
</g>
<g>
</g>
<g>
</g>
<g>
</g>
<g>
</g>
<g>
</g>
<g>
</g>
</svg>
